<svg width="195" height="59" viewBox="0 0 195 59" fill="none" xmlns="http://www.w3.org/2000/svg">
<path d="M19.2602 23.5924C19.2632 24.6842 18.355 25.6147 17.2866 25.6177C16.2345 25.6208 15.2832 24.6646 15.2803 23.6015C15.2773 22.5368 16.2137 21.5897 17.2792 21.5806C18.3417 21.5716 19.2588 22.5021 19.2602 23.5924Z" fill="#FFB0AF"/>
<path d="M15.2823 33.2652C15.2749 32.1628 16.1637 31.2338 17.2322 31.2293C18.2873 31.2247 19.2444 32.1688 19.2593 33.229C19.2726 34.2756 18.317 35.2543 17.2693 35.2679C16.2008 35.2799 15.2912 34.3645 15.2838 33.2652H15.2823Z" fill="#FFB0AF"/>
<path d="M15.3574 13.9663C15.353 12.7613 16.1617 11.9078 17.2866 11.9319C18.3788 11.9545 19.192 12.8292 19.1831 13.9738C19.1742 15.1034 18.3209 15.9796 17.2376 15.9705C16.1469 15.9615 15.3604 15.1245 15.3574 13.9663Z" fill="#FFB0AF"/>
<path d="M27.6675 23.5924C27.6704 24.6842 26.7623 25.6147 25.6938 25.6177C24.6417 25.6208 23.6905 24.6646 23.6875 23.6015C23.6845 22.5368 24.6209 21.5897 25.6864 21.5806C26.7489 21.5716 27.666 22.5021 27.6675 23.5924Z" fill="#FFB0AF"/>
<path d="M23.6895 33.2652C23.6821 32.1628 24.571 31.2338 25.6394 31.2293C26.6945 31.2247 27.6517 32.1688 27.6665 33.229C27.6799 34.2756 26.7242 35.2543 25.6765 35.2679C24.6081 35.28 23.6984 34.3645 23.691 33.2652H23.6895Z" fill="#FFB0AF"/>
<path d="M23.7647 13.9663C23.7602 12.7613 24.569 11.9078 25.6938 11.9319C26.786 11.9545 27.5992 12.8292 27.5903 13.9738C27.5814 15.1034 26.7281 15.9796 25.6448 15.9705C24.5541 15.9615 23.7676 15.1245 23.7647 13.9663Z" fill="#FFB0AF"/>
<path d="M69.7902 9.02441H42.2896C37.6197 9.02441 33.834 12.8716 33.834 17.6174V30.4571C33.834 35.2029 37.6197 39.0501 42.2896 39.0501H69.7902C74.4601 39.0501 78.2458 35.2029 78.2458 30.4571V17.6174C78.2458 12.8716 74.4601 9.02441 69.7902 9.02441Z" fill="#FFB0AF"/>
<path d="M55.9865 39.0423C51.5198 39.0423 47.0516 39.0468 42.5849 39.0423C37.4356 39.0347 33.8563 35.4184 33.8429 30.2035C33.8325 26.1181 33.8296 22.0327 33.8429 17.9459C33.8607 12.6374 37.3896 9.06632 42.6161 9.06179C48.8131 9.05576 55.0115 9.05878 61.2085 9.06179C62.4699 9.06179 63.1006 9.54588 63.1288 10.502C63.154 11.4099 62.6539 11.998 61.7561 12.0885C61.4756 12.1171 61.1907 12.1021 60.9073 12.1021C54.8676 12.1021 48.8264 12.1006 42.7867 12.1021C39.0071 12.1021 36.8717 14.2601 36.8702 18.074C36.8702 22.1277 36.8672 26.1814 36.8702 30.2351C36.8732 33.7293 39.0842 35.9749 42.527 35.9764C51.5242 35.9794 60.5215 35.9794 69.5187 35.9764C72.9615 35.9764 75.18 33.7263 75.1829 30.2397C75.1874 26.0894 75.1933 21.9407 75.1815 17.7905C75.1726 14.3581 72.9555 12.1307 69.5543 12.1036C69.1462 12.1006 68.7337 12.1262 68.3285 12.0794C67.5005 11.9859 67.0687 11.4958 67.0494 10.6453C67.0301 9.74947 67.4545 9.18395 68.3018 9.09346C74.5107 8.42991 78.133 12.835 78.1894 17.3698C78.2443 21.805 78.2755 26.2448 78.1924 30.6785C78.1034 35.4591 74.4795 39.0076 69.7635 39.0378C65.1707 39.0679 60.5779 39.0438 55.985 39.0438L55.9865 39.0423Z" fill="#FFB0AF"/>
<path d="M56.1676 26.1124C54.6955 26.1124 53.541 25.5966 52.5928 24.63C51.9576 23.9815 51.9487 22.9967 52.5275 22.3995C53.1003 21.8084 53.9447 21.8038 54.6466 22.389C55.7388 23.2968 56.2982 23.2908 57.4394 22.3603C58.1279 21.7993 59.0035 21.828 59.5585 22.4297C60.0971 23.0148 60.0719 23.9317 59.4857 24.5817C58.5642 25.6012 57.4008 26.0762 56.1676 26.1139V26.1124Z" fill="white"/>
<path d="M45.3082 22.6393C45.3082 21.0649 45.7593 20.338 46.7551 20.3048C47.7968 20.2701 48.3162 21.0483 48.3132 22.6438C48.3132 22.8987 48.328 23.1536 48.3043 23.4054C48.2123 24.3706 47.5875 24.9467 46.7016 24.8999C45.8587 24.8547 45.3527 24.2771 45.3097 23.3074C45.3008 23.0857 45.3097 22.8625 45.3082 22.6393Z" fill="white"/>
<path d="M66.725 22.6468C66.7472 24.3283 66.164 25.0613 64.9709 24.8803C63.9945 24.7325 63.6265 23.8593 63.7437 21.9697C63.8045 20.9804 64.3759 20.335 65.2143 20.3048C65.9414 20.2792 66.6196 20.8447 66.716 21.6002C66.7606 21.9441 66.7235 22.2985 66.7235 22.6468H66.725Z" fill="white"/>
<path d="M101.306 45.3342H95.6818V45.3447C75.2389 45.3613 54.7974 45.3568 34.3544 45.3568C34.0947 45.3568 33.835 45.3478 33.5768 45.3659C30.9873 45.3598 28.3963 45.3372 25.8083 45.4247C22.8107 45.5272 20.4453 46.7985 19.1676 49.6925C18.7239 50.6969 18.4004 51.7556 18.0027 52.8429C17.3587 51.837 16.8185 50.7979 16.4179 49.691C15.3924 46.8619 13.441 45.4322 10.439 45.3387C6.44865 45.2135 3.4466 42.1597 3.50448 37.9884C3.61578 30.0845 3.6232 22.1777 3.50893 14.2739C3.42286 8.29289 8.14035 4.13514 13.5227 4.09593C21.0018 4.04013 28.4824 4.0356 35.963 4.03259C54.4635 4.02505 72.9625 4.02957 91.4629 4.03259C92.0001 4.03259 99.5357 4.03259 100.071 4.03259H101.067C102.17 4.03259 103.063 3.12925 103.063 2.01629C103.063 0.903336 102.17 0 101.067 0H94.649C83.0638 0.0196049 52.8549 0.0301615 13.4321 0.0331776C13.7171 0.0331776 12.5076 0.0331776 12.0936 0.0331776C11.1127 0.0346857 4.69016 1.6438 1.61244 7.65649C1.28745 8.28988 -0.108951 9.63055 0.00679748 14.568C0.190808 22.4341 0.0483482 30.3077 0.0438964 38.1784C0.0438964 39.0877 0.104738 39.9896 0.309524 40.8733C1.3661 45.4096 5.21399 48.5811 10.1808 48.857C11.776 48.946 12.6709 49.593 13.2214 51.095C14.2097 53.7945 15.7486 56.1772 17.7015 58.2704C18.6022 59.2356 19.877 59.2431 20.5551 58.2931C20.9113 57.7924 20.9306 57.1801 20.9988 56.5965C21.1932 54.9331 21.5182 53.3013 22.0806 51.7254C22.7425 49.8735 24.0469 48.9611 25.9923 48.9566C28.5774 48.9505 31.1624 48.934 33.7475 48.9053C33.9716 48.9128 34.1971 48.9023 34.4212 48.9023C45.6814 48.9023 56.9402 48.9023 68.2005 48.9038C77.3609 48.9038 86.5214 48.9038 95.6818 48.9038V48.9068H101.306C102.277 48.9068 103.063 48.1075 103.063 47.1213C103.063 46.135 102.277 45.3357 101.306 45.3357V45.3342Z" fill="#FFB0AF"/>
<path d="M116.122 34.5348C116.122 34.8243 116.012 35.0807 115.794 35.3024C115.597 35.5029 115.334 35.6025 115.006 35.6025C114.721 35.6025 114.481 35.5029 114.283 35.3024C114.086 35.1018 113.988 34.8575 113.988 34.5679V32.6647C113.243 33.556 112.323 34.2678 111.228 34.8017C110.133 35.3355 108.972 35.6025 107.745 35.6025C106.628 35.6025 105.565 35.3808 104.559 34.9344C103.594 34.5121 102.731 33.9104 101.963 33.1322C101.219 32.3752 100.628 31.4854 100.19 30.4614C99.7747 29.4827 99.5654 28.3909 99.5654 27.1889C99.5654 25.987 99.7836 24.9404 100.223 23.9164C100.661 22.8924 101.253 22.0027 101.996 21.2456C102.741 20.4886 103.617 19.8883 104.624 19.4435C105.632 18.9986 106.705 18.7754 107.844 18.7754C108.984 18.7754 110.1 18.9865 111.065 19.4103C112.072 19.8552 112.948 20.4569 113.693 21.2124C114.458 21.9921 115.05 22.8713 115.467 23.8501C115.905 24.874 116.125 25.9538 116.125 27.0879V34.5332L116.122 34.5348ZM107.745 33.7008C108.183 33.7008 108.604 33.651 109.009 33.55C109.414 33.4505 109.803 33.3117 110.176 33.1322C110.921 32.799 111.577 32.342 112.146 31.7629C112.716 31.1838 113.164 30.5172 113.494 29.7602C113.822 29.0031 113.987 28.1797 113.987 27.29C113.987 26.4002 113.823 25.5994 113.495 24.8197C113.167 24.0416 112.731 23.3735 112.185 22.817C111.617 22.2379 110.962 21.7825 110.219 21.4477C109.455 21.1144 108.646 20.947 107.794 20.947C106.942 20.947 106.111 21.1144 105.369 21.4477C104.605 21.781 103.949 22.2274 103.403 22.7839C102.857 23.3403 102.419 24.0084 102.091 24.7866C101.763 25.5662 101.6 26.3897 101.6 27.2568C101.6 28.1239 101.763 28.9715 102.09 29.727C102.416 30.4841 102.863 31.1521 103.43 31.7297C103.974 32.2862 104.627 32.7311 105.39 33.0659C105.759 33.2438 106.147 33.3947 106.549 33.5168C106.953 33.639 107.371 33.7008 107.807 33.7008H107.742H107.745Z" fill="#FFB0AF"/>
<path d="M119.668 35.1365C119.471 34.936 119.373 34.6917 119.373 34.4021C119.373 34.1126 119.471 33.8683 119.668 33.6677C119.866 33.4671 120.106 33.3676 120.391 33.3676H127.947C128.67 33.3676 129.295 33.1006 129.82 32.5668C130.345 32.0329 130.608 31.398 130.608 30.6636C130.608 29.9292 130.345 29.2943 129.82 28.7604C129.295 28.2266 128.67 27.9596 127.947 27.9596H124.004C123.414 27.9596 122.822 27.8375 122.231 27.5917C121.661 27.37 121.169 27.0352 120.753 26.5903C120.315 26.168 119.986 25.6674 119.768 25.0883C119.526 24.488 119.407 23.8863 119.407 23.2861C119.407 22.6859 119.527 22.0842 119.768 21.4825C119.986 20.926 120.315 20.4253 120.753 19.9804C121.169 19.5582 121.661 19.2234 122.231 18.9791C122.822 18.7347 123.414 18.6111 124.004 18.6111H129.589C129.874 18.6111 130.114 18.7106 130.311 18.9112C130.509 19.1118 130.607 19.3561 130.607 19.6456C130.607 19.9352 130.509 20.1795 130.311 20.3801C130.114 20.5806 129.874 20.6802 129.589 20.6802H124.004C123.282 20.6802 122.657 20.9471 122.132 21.4809C121.606 22.0148 121.344 22.6497 121.344 23.3841C121.344 24.1186 121.606 24.7535 122.132 25.2873C122.657 25.8212 123.282 26.0881 124.004 26.0881H127.947C128.538 26.0881 129.13 26.2103 129.721 26.4561C130.268 26.7019 130.761 27.0352 131.199 27.4574C131.614 27.9023 131.944 28.4045 132.184 28.9595C132.424 29.5597 132.545 30.1614 132.545 30.7616C132.545 31.3618 132.424 31.9636 132.184 32.5638C131.942 33.1429 131.614 33.6436 131.199 34.0658C130.761 34.5107 130.267 34.8455 129.721 35.0672C129.13 35.313 128.538 35.4351 127.947 35.4351H120.391C120.106 35.4351 119.866 35.3356 119.668 35.135V35.1365Z" fill="#FFB0AF"/>
<path d="M137.047 28.0924C137.112 28.4709 137.212 28.866 137.342 29.2777C137.474 29.6894 137.627 30.0619 137.802 30.3967C138.152 31.0648 138.612 31.6318 139.182 32.0993C139.73 32.5668 140.353 32.9333 141.055 33.2017C141.733 33.4687 142.478 33.6029 143.288 33.6029C144.143 33.6029 144.952 33.4355 145.719 33.1022C146.464 32.7689 147.12 32.312 147.69 31.7329C147.908 31.5549 148.138 31.466 148.38 31.466C148.622 31.466 148.85 31.5549 149.07 31.7329C149.245 31.9561 149.333 32.1898 149.333 32.4341C149.333 32.6784 149.245 32.9122 149.07 33.1354C148.325 33.8924 147.449 34.4927 146.442 34.9375C145.477 35.3613 144.416 35.5724 143.256 35.5724C142.095 35.5724 141.076 35.3507 140.07 34.9044C139.105 34.4821 138.241 33.8804 137.474 33.1022C136.729 32.3452 136.139 31.4554 135.701 30.4314C135.284 29.4527 135.076 28.3608 135.076 27.1589C135.076 25.957 135.294 24.9104 135.734 23.8864C136.171 22.8624 136.763 21.9726 137.507 21.2156C138.252 20.4585 139.127 19.8583 140.135 19.4134C141.143 18.9686 142.215 18.7454 143.355 18.7454C144.495 18.7454 145.611 18.9565 146.575 19.3803C147.583 19.8251 148.458 20.4269 149.203 21.1824C149.969 21.9621 150.561 22.8413 150.977 23.82C151.415 24.844 151.634 25.9238 151.634 27.0579C151.634 27.3474 151.536 27.5917 151.339 27.7923C151.141 27.9929 150.901 28.0924 150.616 28.0924H137.048H137.047ZM149.399 26.2556C149.267 25.4774 149.027 24.7641 148.677 24.1186C148.304 23.4505 147.844 22.8835 147.297 22.416C146.727 21.9485 146.102 21.582 145.424 21.3136C144.722 21.0467 143.989 20.9125 143.223 20.9125C142.457 20.9125 141.701 21.0467 141.022 21.3136C140.32 21.5805 139.697 21.9485 139.15 22.416C138.58 22.8835 138.12 23.4505 137.77 24.1186C137.419 24.7641 137.179 25.4759 137.047 26.2556H149.399Z" fill="#FFB0AF"/>
<path d="M166.056 32.5322C165.858 32.9107 165.563 33.0992 165.168 33.0992C164.751 33.0992 164.456 32.9107 164.281 32.5322L157.284 17.5088V34.4354C157.284 34.7249 157.186 34.9692 156.989 35.1698C156.791 35.3704 156.551 35.4699 156.266 35.4699C155.981 35.4699 155.741 35.3704 155.543 35.1698C155.346 34.9692 155.248 34.7249 155.248 34.4354V13.0343C155.248 12.7674 155.346 12.5336 155.543 12.3331C155.741 12.1325 155.971 12.033 156.233 12.033C156.628 12.033 156.923 12.223 157.121 12.6L165.104 29.7272L173.088 12.6C173.263 12.2215 173.559 12.033 173.976 12.033C174.26 12.033 174.501 12.1325 174.698 12.3331C174.896 12.5336 174.994 12.7779 174.994 13.0675V34.4354C174.994 34.7249 174.896 34.9692 174.698 35.1698C174.501 35.3704 174.26 35.4699 173.976 35.4699C173.691 35.4699 173.45 35.3704 173.253 35.1698C173.055 34.9692 172.958 34.7249 172.958 34.4354V17.5088L166.059 32.5322H166.056Z" fill="#C8CFA3"/>
<path d="M180.413 28.0924C180.478 28.4709 180.578 28.866 180.708 29.2777C180.84 29.6894 180.993 30.0619 181.168 30.3967C181.519 31.0648 181.979 31.6318 182.548 32.0993C183.096 32.5668 183.719 32.9333 184.421 33.2017C185.099 33.4687 185.844 33.6029 186.655 33.6029C187.509 33.6029 188.318 33.4355 189.085 33.1022C189.83 32.7689 190.486 32.312 191.056 31.7329C191.274 31.5549 191.504 31.466 191.746 31.466C191.988 31.466 192.216 31.5549 192.436 31.7329C192.611 31.9561 192.699 32.1898 192.699 32.4341C192.699 32.6784 192.611 32.9122 192.436 33.1354C191.691 33.8924 190.816 34.4927 189.808 34.9375C188.843 35.3613 187.782 35.5724 186.622 35.5724C185.461 35.5724 184.442 35.3507 183.436 34.9044C182.471 34.4821 181.608 33.8804 180.84 33.1022C180.096 32.3452 179.505 31.4554 179.067 30.4314C178.65 29.4527 178.442 28.3608 178.442 27.1589C178.442 25.957 178.661 24.9104 179.1 23.8864C179.538 22.8624 180.13 21.9726 180.873 21.2156C181.618 20.4585 182.494 19.8583 183.501 19.4134C184.509 18.9686 185.582 18.7454 186.721 18.7454C187.861 18.7454 188.977 18.9565 189.942 19.3803C190.949 19.8251 191.825 20.4269 192.57 21.1824C193.335 21.9621 193.927 22.8413 194.343 23.82C194.781 24.844 195 25.9238 195 27.0579C195 27.3474 194.902 27.5917 194.705 27.7923C194.508 27.9929 194.267 28.0924 193.982 28.0924H180.415H180.413ZM192.766 26.2556C192.633 25.4774 192.393 24.7641 192.043 24.1186C191.67 23.4505 191.21 22.8835 190.663 22.416C190.093 21.9485 189.468 21.582 188.79 21.3136C188.088 21.0467 187.355 20.9125 186.589 20.9125C185.824 20.9125 185.067 21.0467 184.389 21.3136C183.687 21.5805 183.063 21.9485 182.516 22.416C181.946 22.8835 181.486 23.4505 181.136 24.1186C180.786 24.7641 180.545 25.4759 180.413 26.2556H192.766Z" fill="#C8CFA3"/>
<path d="M97.249 14.5515H82.0444C81.5666 14.5515 81.1748 14.1533 81.1748 13.6677V12.8142C81.1748 12.3286 81.5666 11.9304 82.0444 11.9304H98.1186V13.6662C98.1186 14.1518 97.7268 14.5499 97.249 14.5499V14.5515Z" fill="#FFB0AF"/>
<path d="M97.249 24.9089H82.0444C81.5666 24.9089 81.1748 24.5107 81.1748 24.0251V23.1716C81.1748 22.686 81.5666 22.2878 82.0444 22.2878H98.1186V24.0236C98.1186 24.5092 97.7268 24.9074 97.249 24.9074V24.9089Z" fill="#FFB0AF"/>
<path d="M97.249 35.2663H82.0444C81.5666 35.2663 81.1748 34.8682 81.1748 34.3826V33.529C81.1748 33.0434 81.5666 32.6453 82.0444 32.6453H98.1186V34.3811C98.1186 34.8667 97.7268 35.2648 97.249 35.2648V35.2663Z" fill="#FFB0AF"/>
</svg>
