<svg width="32" height="37" viewBox="0 0 32 37" fill="none" xmlns="http://www.w3.org/2000/svg">
<path d="M29.8748 30.2388H29.9129C29.9813 30.2388 30.0473 30.2291 30.1109 30.2154C30.1172 30.2154 30.1216 30.2168 30.126 30.2168C30.6094 30.2168 31 29.8496 31 29.3982V1.31854C31 0.867151 30.6099 0.5 30.126 0.5H5.22122C2.89498 0.5 1.00574 2.27075 1.00574 4.44756C1.00574 4.47548 1.01161 4.50387 1.01405 4.53362C1.01209 6.54288 0.984721 29.9815 1.01209 32.4101C1.01063 32.4577 1.00378 32.5035 1.00378 32.5515C1.00378 34.6446 2.75225 36.3576 4.95482 36.4876C4.99735 36.4936 5.04232 36.5 5.0868 36.5H30.0551C30.4872 36.5 30.8372 36.1718 30.8372 35.7675V35.5968C30.8372 35.1921 30.4868 34.8643 30.0551 34.8643H29.8718C29.2481 34.5919 28.7705 33.7088 28.7393 32.6619L28.7402 32.6495C28.7422 32.6284 28.7437 32.6074 28.7437 32.5854C28.7437 32.5561 28.7427 32.5149 28.7417 32.4618L28.7402 32.3991C28.7828 31.3741 29.2603 30.5084 29.8738 30.2392L29.8748 30.2388ZM28.3174 32.389V32.3945L28.3184 32.4687C28.3194 32.5186 28.3204 32.5575 28.3204 32.5849C28.3204 32.5959 28.3194 32.606 28.3184 32.6165L28.3155 32.6532V32.6619C28.3409 33.5834 28.6728 34.3822 29.1689 34.8638H5.21878C3.89313 34.8638 2.807 33.8755 2.75421 32.6449C2.75616 32.6234 2.76056 32.6028 2.76056 32.5808C2.76056 32.5451 2.75861 32.4893 2.75616 32.4133C2.83242 31.2033 3.90731 30.2383 5.21878 30.2383H29.1728C28.685 30.7117 28.3531 31.4908 28.3169 32.3886L28.3174 32.389Z" fill="#87A173" stroke="#87A173" stroke-linejoin="round"/>
</svg>
