<svg width="128" height="39" viewBox="0 0 128 39" fill="none" xmlns="http://www.w3.org/2000/svg">
<path d="M38.6046 9.39297C35.4182 6.20234 30.2519 6.20234 27.0655 9.39297C27.042 9.41651 27.0196 9.44004 26.9972 9.46358C26.9748 9.44004 26.9513 9.41651 26.9289 9.39297C23.7425 6.20234 18.5762 6.20234 15.3898 9.39297C12.2034 12.5836 12.2034 17.7567 15.3898 20.9474C15.4133 20.9709 15.4368 20.9933 15.4603 21.0157L24.77 30.3388C26.0011 31.5716 27.9978 31.5716 29.23 30.3388L38.5397 21.0169C38.5632 20.9933 38.5867 20.9709 38.6102 20.9474C41.7966 17.7567 41.7966 12.5836 38.6102 9.39297H38.6046Z" fill="#87A173"/>
<path d="M38.5352 21.018C38.5587 20.9945 38.5822 20.972 38.6057 20.9485C41.7921 17.7579 41.7921 12.5847 38.6057 9.3941C35.4193 6.20348 30.253 6.20348 27.0666 9.3941C27.0431 9.41764 27.0207 9.44117 26.9983 9.46471V31.2657C27.8052 31.2657 28.6122 30.9575 29.2278 30.3411L38.5374 21.0191L38.5352 21.018Z" fill="#C7CFA2"/>
<path d="M31.9643 17.4519H28.6413V14.1246C28.6413 13.9128 28.4701 13.7413 28.2585 13.7413H25.6373C25.4258 13.7413 25.2546 13.9128 25.2546 14.1246V17.4519H21.9316C21.7201 17.4519 21.5488 17.6234 21.5488 17.8352V20.4599C21.5488 20.6717 21.7201 20.8432 21.9316 20.8432H25.2546V24.1705C25.2546 24.3823 25.4258 24.5538 25.6373 24.5538H28.2585C28.4701 24.5538 28.6413 24.3823 28.6413 24.1705V20.8432H31.9643C32.1758 20.8432 32.347 20.6717 32.347 20.4599V17.8352C32.347 17.6234 32.1758 17.4519 31.9643 17.4519Z" fill="white"/>
<path d="M57.7559 25.1328V12.5528H59.7449V18.1288L64.8619 12.5698H67.3949L61.7339 18.6048L67.6329 25.1328H65.0149L59.7449 19.2508V25.1328H57.7559ZM76.2783 12.7228L74.7313 12.7058L76.1593 9.64583H78.0633L76.2783 12.7228ZM69.8353 14.8988L71.9433 12.3658H73.5413L75.6493 14.8988H74.0003L72.7423 13.3688L71.4843 14.8988H69.8353ZM72.8103 25.3028C72.0623 25.3028 71.4106 25.1725 70.8553 24.9118C70.3 24.6398 69.841 24.2828 69.4783 23.8408C69.127 23.3875 68.8606 22.8832 68.6793 22.3278C68.5093 21.7725 68.4243 21.2058 68.4243 20.6278C68.4243 20.0612 68.5093 19.5002 68.6793 18.9448C68.8606 18.3895 69.127 17.8852 69.4783 17.4318C69.8296 16.9785 70.2716 16.6215 70.8043 16.3608C71.3483 16.0888 71.9943 15.9528 72.7423 15.9528C73.5243 15.9528 74.2213 16.1342 74.8333 16.4968C75.4453 16.8482 75.9213 17.3752 76.2613 18.0778C76.6126 18.7692 76.7883 19.6305 76.7883 20.6618V21.1888H70.3793C70.4246 21.8802 70.657 22.4752 71.0763 22.9738C71.4956 23.4725 72.0736 23.7218 72.8103 23.7218C73.2296 23.7218 73.5753 23.6538 73.8473 23.5178C74.1193 23.3705 74.329 23.2062 74.4763 23.0248C74.635 22.8435 74.7426 22.6848 74.7993 22.5488C74.856 22.4128 74.8843 22.3448 74.8843 22.3448H76.6863C76.6863 22.3448 76.658 22.4468 76.6013 22.6508C76.5446 22.8435 76.4426 23.0872 76.2953 23.3818C76.148 23.6765 75.927 23.9712 75.6323 24.2658C75.349 24.5605 74.975 24.8098 74.5103 25.0138C74.057 25.2065 73.4903 25.3028 72.8103 25.3028ZM70.3963 19.8288H74.9013C74.8673 19.0355 74.635 18.4518 74.2043 18.0778C73.7736 17.7038 73.2806 17.5168 72.7253 17.5168C72.0793 17.5168 71.5466 17.7265 71.1273 18.1458C70.708 18.5538 70.4643 19.1148 70.3963 19.8288ZM82.7135 25.3028C81.9995 25.3028 81.4271 25.1725 80.9965 24.9118C80.5658 24.6512 80.2541 24.3055 80.0615 23.8748C79.8801 23.4328 79.7895 22.9568 79.7895 22.4468V17.6868H78.2085V16.1228H79.7895V13.8788H81.7275V16.1228H83.8355V17.6868H81.7275V22.4128C81.7275 23.2628 82.1978 23.6878 83.1385 23.6878C83.3765 23.6878 83.5975 23.6708 83.8015 23.6368C84.0055 23.6028 84.1075 23.5858 84.1075 23.5858V25.1668C84.1075 25.1668 83.9658 25.1895 83.6825 25.2348C83.4105 25.2802 83.0875 25.3028 82.7135 25.3028ZM90.0087 25.1328V16.1228H91.9467V17.4318H92.0487C92.1281 17.2732 92.2641 17.0805 92.4567 16.8538C92.6494 16.6158 92.9157 16.4062 93.2557 16.2248C93.6071 16.0435 94.0491 15.9528 94.5817 15.9528C95.2504 15.9528 95.8114 16.1058 96.2647 16.4118C96.7181 16.7178 97.0581 17.1258 97.2847 17.6358C97.5227 18.1458 97.6417 18.7068 97.6417 19.3188V25.1328H95.7037V19.5228C95.7037 18.9788 95.5507 18.5198 95.2447 18.1458C94.9501 17.7718 94.5081 17.5848 93.9187 17.5848C93.4541 17.5848 93.0744 17.7038 92.7797 17.9418C92.4964 18.1685 92.2867 18.4688 92.1507 18.8428C92.0147 19.2055 91.9467 19.5965 91.9467 20.0158V25.1328H90.0087ZM107.826 12.6888L106.262 12.6718L107.707 9.61183H109.611L107.826 12.6888ZM101.383 14.8818L103.474 12.3318H105.089L107.18 14.8818H105.531L104.273 13.3518L103.032 14.8818H101.383ZM104.29 25.3028C103.316 25.3028 102.488 25.0818 101.808 24.6398C101.14 24.1978 100.63 23.6198 100.278 22.9058C99.9271 22.1918 99.7514 21.4325 99.7514 20.6278C99.7514 19.8232 99.9271 19.0638 100.278 18.3498C100.63 17.6358 101.14 17.0578 101.808 16.6158C102.488 16.1738 103.316 15.9528 104.29 15.9528C105.265 15.9528 106.087 16.1738 106.755 16.6158C107.435 17.0578 107.951 17.6358 108.302 18.3498C108.654 19.0638 108.829 19.8232 108.829 20.6278C108.829 21.4325 108.654 22.1918 108.302 22.9058C107.951 23.6198 107.435 24.1978 106.755 24.6398C106.087 25.0818 105.265 25.3028 104.29 25.3028ZM104.29 23.6538C104.846 23.6538 105.31 23.5122 105.684 23.2288C106.07 22.9455 106.359 22.5715 106.551 22.1068C106.755 21.6422 106.857 21.1492 106.857 20.6278C106.857 20.0952 106.755 19.6022 106.551 19.1488C106.359 18.6842 106.07 18.3102 105.684 18.0268C105.31 17.7435 104.846 17.6018 104.29 17.6018C103.735 17.6018 103.265 17.7435 102.879 18.0268C102.505 18.3102 102.216 18.6842 102.012 19.1488C101.82 19.6022 101.723 20.0952 101.723 20.6278C101.723 21.1492 101.82 21.6422 102.012 22.1068C102.216 22.5715 102.505 22.9455 102.879 23.2288C103.265 23.5122 103.735 23.6538 104.29 23.6538ZM112.183 14.5758C111.832 14.5758 111.543 14.4568 111.316 14.2188C111.09 13.9808 110.976 13.7032 110.976 13.3858C110.976 13.0572 111.09 12.7795 111.316 12.5528C111.543 12.3148 111.832 12.1958 112.183 12.1958C112.535 12.1958 112.824 12.3148 113.05 12.5528C113.288 12.7795 113.407 13.0572 113.407 13.3858C113.407 13.7145 113.288 13.9978 113.05 14.2358C112.824 14.4625 112.535 14.5758 112.183 14.5758ZM111.231 25.1328V16.1228H113.169V25.1328H111.231Z" fill="#87A173"/>
<rect x="0.5" y="0.5" width="127" height="37.2657" rx="7.5" stroke="#87A273"/>
</svg>
