<svg width="36" height="36" viewBox="0 0 36 36" fill="none" xmlns="http://www.w3.org/2000/svg">
<g clip-path="url(#clip0_36_252)">
<path d="M31.5874 13.1321L31.5852 13.1299L19.8697 1.4161C19.3704 0.916563 18.7065 0.641602 18.0003 0.641602C17.294 0.641602 16.6301 0.916563 16.1305 1.4161L4.42124 13.124C4.4173 13.1279 4.41314 13.1321 4.40941 13.136C3.38395 14.1673 3.3857 15.8405 4.41445 16.8692C4.88445 17.3393 5.50499 17.6115 6.16869 17.6402C6.19586 17.6428 6.22303 17.6441 6.25042 17.6441H6.71713V26.2645C6.71713 27.9706 8.10545 29.3586 9.8117 29.3586H14.3952C14.8599 29.3586 15.2366 28.9817 15.2366 28.5173V21.7587C15.2366 20.9802 17.2217 20.3471 18.0003 20.3471C18.7788 20.3471 20.7637 20.9802 20.7637 21.7587V28.5173C20.7637 28.9817 21.1404 29.3586 21.6051 29.3586H26.1886C27.8951 29.3586 29.2832 27.9706 29.2832 26.2645V17.6441H29.7161C30.4221 17.6441 31.086 17.3691 31.5858 16.8694C32.6157 15.8392 32.6161 14.1629 31.5874 13.1321Z" fill="#87A173"/>
</g>
<defs>
<clipPath id="clip0_36_252">
<rect width="30" height="30" fill="white" transform="translate(3)"/>
</clipPath>
</defs>
</svg>
