<svg width="26" height="29" viewBox="0 0 26 29" fill="none" xmlns="http://www.w3.org/2000/svg">
<path d="M22.124 9.34812L22.1274 9.34796C22.7495 9.31766 23.3473 9.5384 23.8075 9.96249C23.8152 9.97083 23.8231 9.97895 23.8314 9.9868C24.2928 10.4237 24.5444 11.0075 24.5444 11.6361C24.5444 12.6248 23.9054 13.4999 22.9457 13.8095L22.483 13.9585C22.2509 14.0332 22.1066 14.2645 22.1414 14.5058L22.4238 16.4612C22.4238 16.4613 22.4238 16.4613 22.4238 16.4614C22.4238 16.4614 22.4238 16.4614 22.4238 16.4614C22.5962 17.6596 21.9579 18.8199 20.8717 19.3399C20.6804 19.4316 20.5677 19.634 20.5906 19.845L21.3391 26.729L21.3391 26.7291C21.388 27.1776 21.2409 27.6292 20.9339 27.9666L20.9334 27.9671C20.6269 28.3049 20.1849 28.5 19.7221 28.5H4.13075C3.65064 28.5 3.19872 28.2926 2.88941 27.9335C2.58103 27.5755 2.44903 27.1048 2.52489 26.6415C2.52491 26.6414 2.52493 26.6413 2.52494 26.6412L3.35267 21.6318C3.38414 21.4413 3.30315 21.2498 3.14458 21.1396C2.5776 20.7458 2.21948 20.1081 2.21948 19.4062V18.6921C2.21948 18.011 2.52361 17.3717 3.05847 16.9374L3.05927 16.9367C3.30886 16.7332 3.598 16.5881 3.9068 16.5023C4.09427 16.4502 4.2345 16.294 4.26624 16.1021L4.61941 13.9658C4.61942 13.9657 4.61944 13.9656 4.61945 13.9655C4.67904 13.609 4.78194 13.2646 4.91782 12.9325C4.97335 12.7968 4.96649 12.6435 4.89907 12.5133C4.83164 12.383 4.71045 12.289 4.56756 12.256C2.23558 11.7174 0.5 9.65266 0.5 7.20127C0.5 4.34204 2.85708 2.00459 5.76578 2.00459C6.75968 2.00459 7.6876 2.2834 8.4838 2.75983C8.704 2.89159 8.98819 2.83527 9.14149 2.6295C10.1017 1.34072 11.6417 0.5 13.3813 0.5C16.29 0.5 18.647 2.83745 18.6464 5.69658V5.69668C18.6464 6.78891 18.2944 7.8462 17.6552 8.7236C17.5423 8.87872 17.528 9.08481 17.6186 9.25399C17.7092 9.42317 17.8886 9.52559 18.0803 9.51755L22.124 9.34812ZM8.65524 3.42445C8.77128 3.19061 8.68789 2.90685 8.46379 2.77296C7.67615 2.30239 6.75448 2.02443 5.76578 2.02443C2.89458 2.02443 0.547002 4.32568 0.532275 7.17431C0.5318 7.18324 0.53156 7.19223 0.53156 7.20127C0.53156 9.75828 2.41332 11.8745 4.86663 12.297C5.06119 12.3305 5.25725 12.2464 5.36704 12.0823C6.18044 10.8667 7.5276 10.0356 9.05069 9.90144C9.23826 9.88492 9.40064 9.76442 9.4708 9.58969C9.54097 9.41495 9.50701 9.21562 9.38296 9.07396C8.56823 8.14364 8.11678 6.96173 8.11678 5.69732C8.11678 4.88269 8.31287 4.11438 8.65524 3.42445ZM2.25169 18.6915C2.25169 18.7 2.2519 18.7086 2.25233 18.7171V19.4055C2.25233 20.4163 2.97958 21.2823 3.97238 21.4749L3.9734 21.4751C4.64257 21.6034 5.32781 21.4318 5.85496 21.0031C6.38275 20.5738 6.68743 19.9375 6.68743 19.259V18.5456C6.68743 17.5344 5.96031 16.668 4.96698 16.4762L4.96693 16.4762C4.29749 16.347 3.61139 16.5186 3.08415 16.9474L3.39964 17.3353L3.08415 16.9474C2.55636 17.3766 2.25169 18.013 2.25169 18.6915ZM16.067 27.9413C16.0564 28.0801 16.1041 28.2171 16.1987 28.3193C16.2934 28.4215 16.4263 28.4795 16.5656 28.4795H19.7228C20.177 28.4795 20.6013 28.2936 20.9071 27.9572C21.2124 27.6213 21.3582 27.1818 21.3081 26.7278L20.5874 20.0949C20.571 19.9447 20.4877 19.8099 20.3606 19.7282C20.2334 19.6466 20.0762 19.6268 19.9328 19.6743L16.9323 20.67C16.7411 20.7334 16.6066 20.9054 16.5912 21.1063L16.067 27.9413ZM22.3923 16.4607L22.3923 16.4606L22.1357 14.6833C22.1147 14.5375 22.0304 14.4084 21.9054 14.3305C21.7804 14.2526 21.6273 14.2337 21.4872 14.279L14.0922 16.6678L14.0921 16.6678C13.1063 16.9863 12.4371 17.892 12.4371 18.9265C12.4371 19.6814 12.7954 20.368 13.4104 20.8059L13.4113 20.8066C14.0266 21.2425 14.7967 21.3578 15.5141 21.1189L16.5941 20.7604L16.5942 20.7604L20.5276 19.4545C21.7938 19.0342 22.5821 17.7773 22.3923 16.4607Z" stroke="#87A173" stroke-linejoin="round"/>
</svg>
