<svg width="26" height="29" viewBox="0 0 26 29" fill="none" xmlns="http://www.w3.org/2000/svg">
<path d="M24.1753 9.62186C23.615 9.09124 22.8748 8.81097 22.1031 8.84855L18.0594 9.01799C18.7596 8.05676 19.1464 6.89678 19.1464 5.69668C19.147 2.55564 16.5604 0 13.3813 0C11.4768 0 9.7908 0.9211 8.74054 2.33078C7.87081 1.81035 6.85472 1.50459 5.76578 1.50459C2.58664 1.50459 0 4.06023 0 7.20127C0 9.89577 1.90645 12.1546 4.45505 12.7432C4.30676 13.1056 4.19265 13.4859 4.12624 13.8834L3.77293 16.0205C3.40157 16.1237 3.04955 16.2995 2.74331 16.5492C2.09213 17.0779 1.71948 17.8595 1.71948 18.6921V19.4062C1.71948 20.2827 2.16692 21.0694 2.85936 21.5503L2.03153 26.5603C1.9316 27.1699 2.10567 27.7897 2.51056 28.2598C2.91545 28.7299 3.50602 29 4.13075 29H19.7221C20.3243 29 20.9013 28.7465 21.3037 28.3031C21.7066 27.8604 21.9007 27.2667 21.8362 26.675L21.0877 19.7909C22.3662 19.1788 23.1231 17.8098 22.9187 16.39L22.6363 14.4344L23.0992 14.2853C24.2623 13.9101 25.0444 12.8451 25.0444 11.6361C25.0444 10.8691 24.7355 10.1544 24.1753 9.62378V9.62186ZM1.0322 7.20127C1.0322 4.62206 3.15593 2.52443 5.76578 2.52443C6.65937 2.52443 7.493 2.7754 8.20735 3.20219C7.83277 3.95704 7.61678 4.80106 7.61678 5.69732C7.61678 7.08343 8.11258 8.38227 9.00681 9.40337C7.32924 9.55116 5.84701 10.4659 4.95149 11.8042C2.72848 11.4214 1.03156 9.50529 1.03156 7.20127H1.0322ZM2.75169 18.6915C2.75169 18.1647 2.98766 17.6703 3.39964 17.3353C3.81162 17.0002 4.34738 16.8658 4.87219 16.9671C5.63425 17.1142 6.18743 17.778 6.18743 18.5456V19.259C6.18743 19.7858 5.95146 20.2801 5.53948 20.6152C5.1275 20.9502 4.59238 21.0847 4.06757 20.984C3.30551 20.8362 2.75233 20.1725 2.75233 19.4055V18.6915H2.75169ZM20.5371 27.6209C20.3269 27.8521 20.0374 27.9795 19.7228 27.9795H16.5656L17.0897 21.1445L20.0903 20.1489L20.8111 26.7826C20.8453 27.0922 20.7473 27.3897 20.5371 27.6209ZM21.8974 16.532C22.0522 17.6054 21.41 18.6348 20.3701 18.98L16.4366 20.2859L15.3561 20.6445C14.79 20.833 14.1859 20.7426 13.7004 20.3986C13.2156 20.0534 12.9371 19.5176 12.9371 18.9265C12.9371 18.1124 13.4632 17.3964 14.2458 17.1435L21.6408 14.7548L21.8974 16.532Z" fill="#87A173"/>
<path d="M6.17142 8.24635C6.14622 8.43342 6.03594 8.60526 5.86941 8.71774C5.70289 8.83022 5.50352 8.86724 5.32316 8.81874C5.12837 8.76656 4.92674 8.88349 4.87303 9.08038C4.81889 9.27705 4.93332 9.47934 5.12812 9.53152C5.51181 9.63466 5.92932 9.5609 6.27236 9.3298C6.49071 9.18262 6.66205 8.9827 6.77176 8.75477C6.83485 8.6237 6.87734 8.4838 6.89706 8.33842C6.92408 8.13635 6.78385 7.95174 6.58386 7.92607C6.38321 7.90064 6.19909 8.04405 6.17163 8.24591L6.17142 8.24635Z" fill="#87A173"/>
<path d="M5.63488 5.50943C5.46514 5.69216 5.44216 5.98664 5.58336 6.16681L5.98519 6.67926C6.12689 6.85959 6.37921 6.8573 6.54895 6.67457C6.60611 6.61296 6.64663 6.5392 6.66989 6.46096C6.71568 6.30689 6.69406 6.13671 6.60048 6.01719L6.19865 5.50474C6.05745 5.32456 5.80513 5.32685 5.63521 5.51018L5.63488 5.50943Z" fill="#87A173"/>
<path d="M3.33114 7.12168C3.1614 7.30441 3.13842 7.59888 3.27961 7.77906L3.68145 8.29151C3.82314 8.47184 4.07546 8.46955 4.24521 8.28682C4.30236 8.22521 4.34289 8.15144 4.36614 8.0732C4.41194 7.91913 4.39031 7.74895 4.29674 7.62944L3.8949 7.11698C3.75371 6.93681 3.50106 6.93835 3.33114 7.12168Z" fill="#87A173"/>
</svg>
