<svg width="49" height="49" viewBox="0 0 49 49" fill="none" xmlns="http://www.w3.org/2000/svg">
<g clip-path="url(#clip0_34_185)">
<path d="M32.8324 47.5404C45.5554 42.9347 52.1358 28.887 47.5301 16.164C42.9244 3.44098 28.8768 -3.13943 16.1538 1.46624C3.43074 6.07191 -3.14967 20.1196 1.456 32.8426C6.06166 45.5656 20.1093 52.146 32.8324 47.5404Z" fill="#87A273"/>
<path d="M30.1849 14.6862C30.1849 17.8227 27.6351 20.3725 24.4986 20.3725C21.3622 20.3725 18.8124 17.8227 18.8124 14.6862C18.8124 11.5498 21.3622 9 24.4986 9C27.6351 9 30.1849 11.5498 30.1849 14.6862Z" fill="white"/>
<path d="M24.4986 22.3243C18.677 22.3243 13.9497 27.0516 13.9497 32.8732C13.9497 34.3963 15.1908 35.6374 16.7139 35.6374H32.2721C33.7952 35.6374 35.0362 34.3963 35.0362 32.8732C35.0362 27.0516 30.309 22.3243 24.4873 22.3243H24.4986Z" fill="white"/>
</g>
<defs>
<clipPath id="clip0_34_185">
<rect width="49" height="49" fill="white"/>
</clipPath>
</defs>
</svg>
